<svg width="540" height="320" viewBox="0 0 540 320" fill="none" xmlns="http://www.w3.org/2000/svg">
<g clip-path="url(#clip0_76_29)">
<path d="M528 0H12C5.37258 0 0 5.37258 0 12V308C0 314.627 5.37258 320 12 320H528C534.627 320 540 314.627 540 308V12C540 5.37258 534.627 0 528 0Z" fill="white"/>
<path d="M528 0H12C5.37258 0 0 5.37258 0 12V28C0 34.6274 5.37258 40 12 40H528C534.627 40 540 34.6274 540 28V12C540 5.37258 534.627 0 528 0Z" fill="#DC2626"/>
<path d="M540 0H0V39.5H288H540V0Z" fill="#DC2626"/>
<text fill="white" style="white-space: pre" xml:space="preserve" font-family="Arial" font-size="20" font-weight="bold" letter-spacing="0em"><tspan x="114.463" y="28.4336">&#x41a;&#x410;&#x420;&#x422;&#x410; &#x42d;&#x41a;&#x421;&#x422;&#x420;&#x415;&#x41d;&#x41d;&#x41e;&#x419; &#x41f;&#x41e;&#x41c;&#x41e;&#x429;&#x418;</tspan></text>
<path d="M115.111 60H32.8889C27.9797 60 24 63.9797 24 68.8889V151.111C24 156.02 27.9797 160 32.8889 160H115.111C120.02 160 124 156.02 124 151.111V68.8889C124 63.9797 120.02 60 115.111 60Z" fill="#F3F4F6" stroke="#D1D5DB" stroke-width="2"/>
<text fill="#9CA3AF" style="white-space: pre" xml:space="preserve" font-family="Arial" font-size="12" letter-spacing="0em"><tspan x="56.6973" y="113.16">&#x424;&#x41e;&#x422;&#x41e;</tspan></text>
<text fill="#111827" style="white-space: pre" xml:space="preserve" font-family="Arial" font-size="36" font-weight="bold" letter-spacing="0em"><tspan x="143" y="88.9805">Двинянинов</tspan></text>
<text fill="#111827" style="white-space: pre" xml:space="preserve" font-family="Arial" font-size="36" font-weight="bold" letter-spacing="0em"><tspan x="143" y="122.98">Антон</tspan></text>
<text fill="#111827" style="white-space: pre" xml:space="preserve" font-family="Arial" font-size="36" font-weight="bold" letter-spacing="0em"><tspan x="143" y="156.98">Алесандрович</tspan></text>
<text fill="#DC2626" style="white-space: pre" xml:space="preserve" font-family="Arial" font-size="13" font-weight="bold" letter-spacing="0em"><tspan x="24" y="196.007">&#x42d;&#x41a;&#x421;&#x422;&#x420;&#x415;&#x41d;&#x41d;&#x42b;&#x415; &#x41a;&#x41e;&#x41d;&#x422;&#x410;&#x41a;&#x422;&#x42b;</tspan></text>
<path d="M203 191L516 191" stroke="#DC2626" stroke-width="2"/>
<text fill="#4B5563" style="white-space: pre" xml:space="preserve" font-family="Arial" font-size="12" letter-spacing="0em"><tspan x="24" y="220.16">Жена:</tspan></text>
<text fill="#111827" style="white-space: pre" xml:space="preserve" font-family="Arial" font-size="16" font-weight="bold" letter-spacing="0em"><tspan x="24" y="236.547">Вероника Двинянинова</tspan></text>
<text fill="#111827" style="white-space: pre" xml:space="preserve" font-family="Arial" font-size="24" font-weight="bold" letter-spacing="0em"><tspan x="24" y="259.32">+7 (950) 155-20-09</tspan></text>
<text fill="#4B5563" style="white-space: pre" xml:space="preserve" font-family="Arial" font-size="12" letter-spacing="0em"><tspan x="281" y="220.16">Контакт:</tspan></text>
<text fill="#111827" style="white-space: pre" xml:space="preserve" font-family="Arial" font-size="16" font-weight="bold" letter-spacing="0em"><tspan x="281" y="236.547"></tspan></text>
<text fill="#111827" style="white-space: pre" xml:space="preserve" font-family="Arial" font-size="24" font-weight="bold" letter-spacing="0em"><tspan x="281" y="259.32"></tspan></text>
<path d="M162 276H0V320H162V276Z" fill="white"/>
<path d="M54 282H26C24.8954 282 24 282.895 24 284V312C24 313.105 24.8954 314 26 314H54C55.1046 314 56 313.105 56 312V284C56 282.895 55.1046 282 54 282Z" fill="#E5E7EB"/>

<text fill="#111827" style="white-space: pre" xml:space="preserve" font-family="Arial" font-size="16" font-weight="bold" letter-spacing="0em"><tspan x="64" y="303.547">carthelp.ru</tspan></text>
<path d="M161 276H181.053H540V320H161V276Z" fill="#DC2626"/>
<text fill="white" style="white-space: pre" xml:space="preserve" font-family="Arial" font-size="28" font-weight="bold" letter-spacing="0em"><tspan x="468.4" y="306.707">112</tspan></text>
<path d="M528 0H12C5.37258 0 0 5.37258 0 12V308C0 314.627 5.37258 320 12 320H528C534.627 320 540 314.627 540 308V12C540 5.37258 534.627 0 528 0Z" stroke="#E5E7EB" stroke-width="2"/>
<text fill="white" style="white-space: pre" xml:space="preserve" font-family="Arial" font-size="13" font-weight="bold" letter-spacing="0em"><tspan x="178" y="303.007">&#x422;&#x435;&#x43b;&#x435;&#x444;&#x43e;&#x43d; &#x44d;&#x43a;&#x441;&#x442;&#x440;&#x435;&#x43d;&#x43d;&#x44b;&#x445; &#x441;&#x43f;&#x430;&#x441;&#x430;&#x442;&#x435;&#x43b;&#x44c;&#x43d;&#x44b;&#x445; &#x441;&#x43b;&#x443;&#x436;&#x431;</tspan></text>
<line x1="161.006" y1="277" x2="0.00660814" y2="278.032" stroke="#E5E7EB" stroke-width="2"/>
</g>
<defs>
<clipPath id="clip0_76_29">
<rect width="540" height="320" fill="white"/>
</clipPath>
<clipPath id="photoClip"><rect x="24" y="60" width="100" height="100" rx="8"/></clipPath></defs>
</svg>
